<svg xmlns="http://www.w3.org/2000/svg" xmlns:xlink="http://www.w3.org/1999/xlink" viewBox="0 0 32 32" class="design-iconfont">
  <defs>
    <path d="M16,0 C7.16333333,0 0,7.16331063 0,15.9999493 L0,15.9999493 C0,24.836588 7.16333333,31.9998986 16,31.9998986 L16,31.9998986 C24.8366667,31.9998986 32,24.836588 32,15.9999493 L32,15.9999493 C32,7.16331063 24.8366667,0 16,0 Z" id="6qdplv4wta"/>
  </defs>
  <g fill="none" fill-rule="evenodd">
    <g>
      <mask id="iby58t05cb" fill="#fff">
        <use xlink:href="#6qdplv4wta"/>
      </mask>
      <path d="M16,0 C7.16333333,0 0,7.16331063 0,15.9999493 L0,15.9999493 C0,24.836588 7.16333333,31.9998986 16,31.9998986 L16,31.9998986 C24.8366667,31.9998986 32,24.836588 32,15.9999493 L32,15.9999493 C32,7.16331063 24.8366667,0 16,0 Z" fill="#FFF" mask="url(#iby58t05cb)"/>
    </g>
    <path d="M29.3333333,14.6666202 C29.3333333,22.7669278 22.767,29.3332404 14.6666667,29.3332404 C6.56633333,29.3332404 0,22.7669278 0,14.6666202 C0,6.56631252 6.56633333,0 14.6666667,0 C22.767,0 29.3333333,6.56631252 29.3333333,14.6666202" fill="#191743" transform="translate(1.333333 1.333329)"/>
    <path fill="#FFF" d="M4.91683333 20.1949693L9.3545 9.41067018 11.0488333 13.5273238 8.30483333 20.1949693z" transform="translate(1.333333 1.333329)"/>
    <path d="M9.3547,8.97073824 L7.4797,13.5273905 L4.6667,20.3623688 L8.41703333,20.3623688 L9.3547,18.0837094 L11.2297,13.5273905 L9.3547,8.97073824 Z M9.3547,9.85106878 L10.8673667,13.5273905 L9.0447,17.9563764 L8.19236667,20.0273699 L5.16703333,20.0273699 L7.78936667,13.6547234 L9.3547,9.85106878 Z" fill="#010035" transform="translate(1.333333 1.333329)"/>
    <path fill="#FFF" d="M10.4046 20.1949693L9.84826667 18.8433069 11.5422667 14.7269867 13.7926 20.1949693z" transform="translate(1.333333 1.333329)"/>
    <path d="M11.5423333,14.2867214 L9.97966667,18.0837094 L9.66733333,18.8433736 L10.2923333,20.3623688 L14.0426667,20.3623688 L11.5423333,14.2867214 Z M11.5423333,15.1670519 L13.5423333,20.0273699 L10.517,20.0273699 L10.0296667,18.8433736 L10.2896667,18.2113756 L11.5423333,15.1670519 Z" fill="#010035" transform="translate(1.333333 1.333329)"/>
    <path fill="#FFF" d="M15.5408333 20.1949693L19.9785 9.41067018 21.6728333 13.5273238 18.9288333 20.1949693z" transform="translate(1.333333 1.333329)"/>
    <path d="M19.9786667,8.97073824 L18.1036667,13.5273905 L15.2906667,20.3623688 L19.041,20.3623688 L19.9786667,18.0837094 L21.8536667,13.5273905 L19.9786667,8.97073824 Z M19.9786667,9.85106878 L21.4913333,13.5273905 L19.6686667,17.9563764 L18.8163333,20.0273699 L15.791,20.0273699 L18.4133333,13.6547234 L19.9786667,9.85106878 Z" fill="#010035" transform="translate(1.333333 1.333329)"/>
    <path fill="#FFF" d="M21.0286333 20.1949693L20.4723 18.8433069 22.1663 14.7269867 24.4166333 20.1949693z" transform="translate(1.333333 1.333329)"/>
    <path d="M22.1663333,14.2867214 L20.6036667,18.0837094 L20.2913333,18.8433736 L20.9163333,20.3623688 L24.6666667,20.3623688 L22.1663333,14.2867214 Z M22.1663333,15.1670519 L24.1663333,20.0273699 L21.141,20.0273699 L20.6536667,18.8433736 L20.9136667,18.2113756 L22.1663333,15.1670519 Z" fill="#010035" transform="translate(1.333333 1.333329)"/>
    <path fill="#FFF" d="M10.2364667 9.13837104L13.6244667 9.13837104 16.3684667 15.8060166 14.6741333 19.9226702z" transform="translate(1.333333 1.333329)"/>
    <path d="M13.7366,8.97073824 L9.98626667,8.97073824 L12.7992667,15.8060499 L14.6742667,20.3623688 L16.5496,15.8060499 L14.6742667,11.2493977 L13.7366,8.97073824 Z M13.5122667,9.30573717 L14.3646,11.3770639 L16.1872667,15.8060499 L14.6742667,19.4820383 L13.1089333,15.6783836 L10.4866,9.30573717 L13.5122667,9.30573717 Z" fill="#010035" transform="translate(1.333333 1.333329)"/>
    <path fill="#FFF" d="M15.1681333 10.4899334L15.7241333 9.13827104 19.1124667 9.13827104 16.8621333 14.606587z" transform="translate(1.333333 1.333329)"/>
    <path d="M19.3623667,8.97073824 L15.6120333,8.97073824 L14.9870333,10.4900668 L15.2993667,11.2493977 L16.8620333,15.0463856 L19.3623667,8.97073824 Z M18.8620333,9.30573717 L16.8620333,14.1660551 L15.6093667,11.1220648 L15.3493667,10.4900668 L15.8367,9.30573717 L18.8620333,9.30573717 Z" fill="#FFF" transform="translate(1.333333 1.333329)"/>
  </g>
</svg>
