<svg xmlns="http://www.w3.org/2000/svg" xmlns:xlink="http://www.w3.org/1999/xlink" viewBox="0 0 156 40" class="design-iconfont">
  <defs>
    <path d="M20,0 C8.95416667,0 0,8.95416667 0,20 L0,20 C0,31.0458333 8.95416667,40 20,40 L20,40 C31.0458333,40 40,31.0458333 40,20 L40,20 C40,8.95416667 31.0458333,0 20,0 Z" id="jxrodzcpla"/>
  </defs>
  <g fill="none" fill-rule="evenodd">
    <g>
      <mask id="nlf7f2obsb" fill="#fff">
        <use xlink:href="#jxrodzcpla"/>
      </mask>
      <path d="M20,0 C8.95416667,0 0,8.95416667 0,20 L0,20 C0,31.0458333 8.95416667,40 20,40 L20,40 C31.0458333,40 40,31.0458333 40,20 L40,20 C40,8.95416667 31.0458333,0 20,0 Z" fill="#FFF" mask="url(#nlf7f2obsb)"/>
    </g>
    <path d="M36.6666667,18.3333333 C36.6666667,28.45875 28.45875,36.6666667 18.3333333,36.6666667 C8.20791667,36.6666667 0,28.45875 0,18.3333333 C0,8.20791667 8.20791667,0 18.3333333,0 C28.45875,0 36.6666667,8.20791667 36.6666667,18.3333333" fill="#191743" transform="translate(1.666667 1.666667)"/>
    <path fill="#FFF" d="M6.14604167 25.2437917L11.693125 11.763375 13.8110417 16.9092083 10.3810417 25.2437917z" transform="translate(1.666667 1.666667)"/>
    <path d="M11.693375,11.2134583 L9.349625,16.9092917 L5.833375,25.4530417 L10.5212917,25.4530417 L11.693375,22.6047083 L14.037125,16.9092917 L11.693375,11.2134583 Z M11.693375,12.313875 L13.5842083,16.9092917 L11.305875,22.4455417 L10.2404583,25.0342917 L6.45879167,25.0342917 L9.73670833,17.0684583 L11.693375,12.313875 Z" fill="#010035" transform="translate(1.666667 1.666667)"/>
    <path fill="#FFF" d="M13.00575 25.2437917L12.3103333 23.5542083 14.4278333 18.4087917 17.24075 25.2437917z" transform="translate(1.666667 1.666667)"/>
    <path d="M14.4279167,17.8584583 L12.4745833,22.6047083 L12.0841667,23.5542917 L12.8654167,25.4530417 L17.5533333,25.4530417 L14.4279167,17.8584583 Z M14.4279167,18.958875 L16.9279167,25.0342917 L13.14625,25.0342917 L12.5370833,23.5542917 L12.8620833,22.7642917 L14.4279167,18.958875 Z" fill="#010035" transform="translate(1.666667 1.666667)"/>
    <path fill="#FFF" d="M19.4260417 25.2437917L24.973125 11.763375 27.0910417 16.9092083 23.6610417 25.2437917z" transform="translate(1.666667 1.666667)"/>
    <path d="M24.9733333,11.2134583 L22.6295833,16.9092917 L19.1133333,25.4530417 L23.80125,25.4530417 L24.9733333,22.6047083 L27.3170833,16.9092917 L24.9733333,11.2134583 Z M24.9733333,12.313875 L26.8641667,16.9092917 L24.5858333,22.4455417 L23.5204167,25.0342917 L19.73875,25.0342917 L23.0166667,17.0684583 L24.9733333,12.313875 Z" fill="#010035" transform="translate(1.666667 1.666667)"/>
    <path fill="#FFF" d="M26.2857917 25.2437917L25.590375 23.5542083 27.707875 18.4087917 30.5207917 25.2437917z" transform="translate(1.666667 1.666667)"/>
    <path d="M27.7079167,17.8584583 L25.7545833,22.6047083 L25.3641667,23.5542917 L26.1454167,25.4530417 L30.8333333,25.4530417 L27.7079167,17.8584583 Z M27.7079167,18.958875 L30.2079167,25.0342917 L26.42625,25.0342917 L25.8170833,23.5542917 L26.1420833,22.7642917 L27.7079167,18.958875 Z" fill="#010035" transform="translate(1.666667 1.666667)"/>
    <path fill="#FFF" d="M12.7955833 11.423L17.0305833 11.423 20.4605833 19.7575833 18.3426667 24.9034167z" transform="translate(1.666667 1.666667)"/>
    <path d="M17.17075,11.2134583 L12.4828333,11.2134583 L15.9990833,19.757625 L18.3428333,25.4530417 L20.687,19.757625 L18.3428333,14.0617917 L17.17075,11.2134583 Z M16.8903333,11.6322083 L17.95575,14.221375 L20.2340833,19.757625 L18.3428333,24.352625 L16.3861667,19.5980417 L13.10825,11.6322083 L16.8903333,11.6322083 Z" fill="#010035" transform="translate(1.666667 1.666667)"/>
    <path fill="#FFF" d="M18.9601667 13.1124583L19.6551667 11.422875 23.8905833 11.422875 21.0776667 18.2582917z" transform="translate(1.666667 1.666667)"/>
    <path d="M24.2029583,11.2134583 L19.5150417,11.2134583 L18.7337917,13.112625 L19.1242083,14.0617917 L21.0775417,18.8080417 L24.2029583,11.2134583 Z M23.5775417,11.6322083 L21.0775417,17.707625 L19.5117083,13.902625 L19.1867083,13.112625 L19.795875,11.6322083 L23.5775417,11.6322083 Z" fill="#010035" transform="translate(1.666667 1.666667)"/>
    <path fill="#FFF" d="M52.6502917 25L56.8352917 17.4604167 61.019875 25 67.4515417 25 60.0507083 11.6666667 53.6194583 11.6666667 46.2190417 25z" transform="translate(1.666667 1.666667)"/>
    <path fill="#FFF" d="M78.7918333 11.6666667L74.6068333 19.20625 70.42225 11.6666667 63.9905833 11.6666667 71.3914167 25 77.8226667 25 85.2230833 11.6666667z" transform="translate(1.666667 1.666667)"/>
    <path fill="#FFF" d="M121.561875 11.6666667L115.510208 11.6666667 115.510208 20.6079167 111.125208 20.6079167 108.938958 16.6691667 108.938958 11.6666667 102.887292 11.6666667 102.887292 17.815 106.875208 25 107.131458 25 113.563125 25 121.561875 25z" transform="translate(1.666667 1.666667)"/>
    <path fill="#FFF" d="M88.1938333 25L92.3788333 17.4604167 96.5634167 25 102.995083 25 95.59425 11.6666667 89.163 11.6666667 81.7625833 25z" transform="translate(1.666667 1.666667)"/>
    <path fill="#FFF" d="M139.382833 20.6079583L130.907417 20.6079583 130.907417 11.6667083 124.85575 11.6667083 124.85575 25.0000417 139.382833 25.0000417z" transform="translate(1.666667 1.666667)"/>
    <path fill="#FFF" d="M153.980792 11.6666667L148.707458 11.6666667 142.655792 11.6666667 137.382875 11.6666667 137.382875 16.05875 142.655792 16.05875 142.655792 25 148.707458 25 148.707458 16.05875 153.980792 16.05875z" transform="translate(1.666667 1.666667)"/>
  </g>
</svg>
