<svg xmlns="http://www.w3.org/2000/svg" xmlns:xlink="http://www.w3.org/1999/xlink" viewBox="0 0 220 220"><defs><style>.cls-1{fill:#fff;}.cls-2{fill:url(#未命名的渐变_10);}.cls-3{fill:#db76ff;}.cls-4{fill:#010035;}.cls-5{fill:#00f4b9;}.cls-6{fill:url(#未命名的渐变_10-2);}</style><linearGradient id="未命名的渐变_10" y1="110" x2="220" y2="110" gradientUnits="userSpaceOnUse"><stop offset="0" stop-color="#db76ff"/><stop offset="0.98" stop-color="#00f4b9"/></linearGradient><linearGradient id="未命名的渐变_10-2" x1="1.7" y1="42.32" x2="61.7" y2="42.32" xlink:href="#未命名的渐变_10"/></defs><g id="图层_2" data-name="图层 2"><g id="图层_1-2" data-name="图层 1"><circle class="cls-1" cx="110" cy="110" r="110"/><path class="cls-2" d="M110,10A100,100,0,1,1,10,110,100.11,100.11,0,0,1,110,10m0-10A110,110,0,1,0,220,110,110,110,0,0,0,110,0Z"/><polygon class="cls-3" points="42.97 148.01 73.48 73.87 85.13 102.17 66.26 148.01 42.97 148.01"/><path class="cls-4" d="M73.48,76.89l10.4,25.28L71.35,132.62l-5.86,14.24H44.69l18-43.82L73.48,76.89m0-6L60.59,102.17l-19.34,47H67l6.45-15.67,12.89-31.32L73.48,70.84Z"/><polygon class="cls-3" points="80.7 148.01 76.88 138.71 88.52 110.42 103.99 148.01 80.7 148.01"/><path class="cls-4" d="M88.52,113.44l13.75,33.42H81.47l-3.35-8.15,1.79-4.34,8.61-20.93m0-6-10.74,26.1-2.15,5.22,4.3,10.45h25.78L88.52,107.39Z"/><polygon class="cls-3" points="116.01 148.01 146.52 73.87 158.17 102.17 139.3 148.01 116.01 148.01"/><path class="cls-4" d="M146.52,76.89l10.4,25.28-12.53,30.45-5.86,14.24h-20.8l18-43.82,10.76-26.15m0-6-12.89,31.33-19.34,47h25.78l6.45-15.67,12.89-31.32L146.52,70.84Z"/><polygon class="cls-3" points="153.74 148.01 149.91 138.71 161.56 110.42 177.03 148.01 153.74 148.01"/><path class="cls-4" d="M161.56,113.44l13.75,33.42h-20.8l-3.35-8.15,1.79-4.34,8.61-20.93m0-6-10.74,26.1-2.15,5.22,4.3,10.45h25.78l-17.19-41.77Z"/><polygon class="cls-5" points="79.54 71.99 102.83 71.99 121.7 117.83 110.05 146.13 79.54 71.99"/><path class="cls-4" d="M102.06,73.14l5.86,14.24,12.53,30.45-10.4,25.28L99.29,117l-18-43.82h20.8m1.55-2.3H77.82l19.34,47,12.89,31.33,12.89-31.33L110.05,86.51l-6.44-15.67Z"/><polygon class="cls-5" points="113.45 81.29 117.27 71.99 140.56 71.99 125.09 109.58 113.45 81.29"/><path class="cls-4" d="M138.84,73.14l-13.75,33.42-8.61-20.93-1.79-4.34L118,73.14h20.8m3.44-2.3H116.5l-4.3,10.45,2.15,5.22,10.74,26.1,17.19-41.77Z"/><circle class="cls-6" cx="31.7" cy="42.32" r="30"/><polygon class="cls-1" points="25.42 52.32 31.7 41.01 37.98 52.32 47.62 52.32 36.52 32.32 26.88 32.32 15.77 52.32 25.42 52.32"/></g></g></svg>